<svg xmlns="http://www.w3.org/2000/svg" viewBox="0 0 120 120"><g fill-rule="nonzero" fill="none"><circle cx="60" cy="60" r="60" fill="#FFF"/><path d="M36.667 56.667c0-11.03 8.97-20 20-20s20 8.97 20 20-8.97 20-20 20-20-8.97-20-20M89.023 84.31L77.707 72.99c3.51-4.517 5.626-10.17 5.626-16.323C83.333 41.963 71.37 30 56.667 30 41.963 30 30 41.963 30 56.667c0 14.703 11.963 26.666 26.667 26.666 6.153 0 11.806-2.116 16.323-5.626l11.32 11.316c.65.65 1.503.977 2.357.977.853 0 1.706-.327 2.356-.977a3.33 3.33 0 000-4.713" fill="#E55573"/></g></svg>
