<svg xmlns="http://www.w3.org/2000/svg" viewBox="0 0 120 120"><g fill-rule="nonzero" fill="none"><path d="M60 120c-19.143 0-34.101-5.281-44.466-15.714C5.169 93.855 0 79.02 0 60c0-14.334 6.405-29.244 17.565-40.923C29.292 6.775 44.409 0 60 0c38.136 0 60 21.864 60 60 0 44.24-30.992 60-60 60z" fill="#E55573"/><path d="M35.5 56.5c0-11.581 9.419-21 21-21s21 9.419 21 21-9.419 21-21 21-21-9.419-21-21m54.974 29.026L78.593 73.638C82.278 68.897 84.5 62.962 84.5 56.5c0-15.438-12.561-28-28-28-15.438 0-28 12.562-28 28s12.562 28 28 28c6.461 0 12.397-2.222 17.14-5.908l11.886 11.883A3.49 3.49 0 0088 91.5a3.49 3.49 0 002.475-1.026 3.496 3.496 0 000-4.948" fill="#FFF"/></g></svg>
